<?xml version="1.0" encoding="UTF-8" standalone="no"?>
<!-- Created with Inkscape (http://www.inkscape.org/) -->

<svg
   xmlns:dc="http://purl.org/dc/elements/1.1/"
   xmlns:cc="http://creativecommons.org/ns#"
   xmlns:rdf="http://www.w3.org/1999/02/22-rdf-syntax-ns#"
   xmlns:svg="http://www.w3.org/2000/svg"
   xmlns="http://www.w3.org/2000/svg"
   xmlns:xlink="http://www.w3.org/1999/xlink"
   xmlns:sodipodi="http://sodipodi.sourceforge.net/DTD/sodipodi-0.dtd"
   xmlns:inkscape="http://www.inkscape.org/namespaces/inkscape"
   width="512"
   height="512"
   id="svg2"
   sodipodi:version="0.32"
   inkscape:version="0.47 r22583"
   version="1.0"
   sodipodi:docname="status-unlocked.svg"
   inkscape:output_extension="org.inkscape.output.svg.inkscape">
  <defs
     id="defs4">
    <linearGradient
       id="linearGradient6126">
      <stop
         style="stop-color:#888a85;stop-opacity:1;"
         offset="0"
         id="stop6128" />
      <stop
         id="stop6138"
         offset="0.125"
         style="stop-color:#c4a000;stop-opacity:1" />
      <stop
         id="stop6136"
         offset="0.32619044"
         style="stop-color:#4e9a06;stop-opacity:1" />
      <stop
         id="stop6134"
         offset="0.5"
         style="stop-color:#ce5c00;stop-opacity:1" />
      <stop
         style="stop-color:#3465a4;stop-opacity:1"
         offset="1"
         id="stop6130" />
    </linearGradient>
    <inkscape:perspective
       id="perspective3273"
       inkscape:persp3d-origin="466.73933 : 250.68013 : 1"
       inkscape:vp_z="533.32864 : 282.07223 : 1"
       inkscape:vp_y="1.0959051e-14 : 178.98079 : 0"
       inkscape:vp_x="400.15002 : 282.07223 : 1"
       sodipodi:type="inkscape:persp3d" />
    <inkscape:perspective
       sodipodi:type="inkscape:persp3d"
       inkscape:vp_x="5.0507627 : 472.64301 : 1"
       inkscape:vp_y="6.1230318e-14 : 1000 : 0"
       inkscape:vp_z="749.14524 : 472.64301 : 1"
       inkscape:persp3d-origin="377.098 : 297.24931 : 1"
       id="perspective10" />
    <inkscape:perspective
       id="perspective3632"
       inkscape:persp3d-origin="0.5 : 0.33333333 : 1"
       inkscape:vp_z="1 : 0.5 : 1"
       inkscape:vp_y="0 : 1000 : 0"
       inkscape:vp_x="0 : 0.5 : 1"
       sodipodi:type="inkscape:persp3d" />
    <inkscape:perspective
       id="perspective3654"
       inkscape:persp3d-origin="0.5 : 0.33333333 : 1"
       inkscape:vp_z="1 : 0.5 : 1"
       inkscape:vp_y="0 : 1000 : 0"
       inkscape:vp_x="0 : 0.5 : 1"
       sodipodi:type="inkscape:persp3d" />
    <inkscape:perspective
       id="perspective3679"
       inkscape:persp3d-origin="0.5 : 0.33333333 : 1"
       inkscape:vp_z="1 : 0.5 : 1"
       inkscape:vp_y="0 : 1000 : 0"
       inkscape:vp_x="0 : 0.5 : 1"
       sodipodi:type="inkscape:persp3d" />
    <inkscape:perspective
       id="perspective3708"
       inkscape:persp3d-origin="0.5 : 0.33333333 : 1"
       inkscape:vp_z="1 : 0.5 : 1"
       inkscape:vp_y="0 : 1000 : 0"
       inkscape:vp_x="0 : 0.5 : 1"
       sodipodi:type="inkscape:persp3d" />
    <inkscape:perspective
       id="perspective3739"
       inkscape:persp3d-origin="0.5 : 0.33333333 : 1"
       inkscape:vp_z="1 : 0.5 : 1"
       inkscape:vp_y="0 : 1000 : 0"
       inkscape:vp_x="0 : 0.5 : 1"
       sodipodi:type="inkscape:persp3d" />
    <inkscape:perspective
       id="perspective3761"
       inkscape:persp3d-origin="0.5 : 0.33333333 : 1"
       inkscape:vp_z="1 : 0.5 : 1"
       inkscape:vp_y="0 : 1000 : 0"
       inkscape:vp_x="0 : 0.5 : 1"
       sodipodi:type="inkscape:persp3d" />
    <inkscape:perspective
       id="perspective3783"
       inkscape:persp3d-origin="0.5 : 0.33333333 : 1"
       inkscape:vp_z="1 : 0.5 : 1"
       inkscape:vp_y="0 : 1000 : 0"
       inkscape:vp_x="0 : 0.5 : 1"
       sodipodi:type="inkscape:persp3d" />
    <inkscape:perspective
       id="perspective3805"
       inkscape:persp3d-origin="0.5 : 0.33333333 : 1"
       inkscape:vp_z="1 : 0.5 : 1"
       inkscape:vp_y="0 : 1000 : 0"
       inkscape:vp_x="0 : 0.5 : 1"
       sodipodi:type="inkscape:persp3d" />
    <inkscape:perspective
       id="perspective6008"
       inkscape:persp3d-origin="0.5 : 0.33333333 : 1"
       inkscape:vp_z="1 : 0.5 : 1"
       inkscape:vp_y="0 : 1000 : 0"
       inkscape:vp_x="0 : 0.5 : 1"
       sodipodi:type="inkscape:persp3d" />
    <inkscape:perspective
       id="perspective6033"
       inkscape:persp3d-origin="0.5 : 0.33333333 : 1"
       inkscape:vp_z="1 : 0.5 : 1"
       inkscape:vp_y="0 : 1000 : 0"
       inkscape:vp_x="0 : 0.5 : 1"
       sodipodi:type="inkscape:persp3d" />
    <inkscape:perspective
       id="perspective6033-2"
       inkscape:persp3d-origin="0.5 : 0.33333333 : 1"
       inkscape:vp_z="1 : 0.5 : 1"
       inkscape:vp_y="0 : 1000 : 0"
       inkscape:vp_x="0 : 0.5 : 1"
       sodipodi:type="inkscape:persp3d" />
    <inkscape:perspective
       id="perspective6033-1"
       inkscape:persp3d-origin="0.5 : 0.33333333 : 1"
       inkscape:vp_z="1 : 0.5 : 1"
       inkscape:vp_y="0 : 1000 : 0"
       inkscape:vp_x="0 : 0.5 : 1"
       sodipodi:type="inkscape:persp3d" />
    <inkscape:perspective
       id="perspective6080"
       inkscape:persp3d-origin="0.5 : 0.33333333 : 1"
       inkscape:vp_z="1 : 0.5 : 1"
       inkscape:vp_y="0 : 1000 : 0"
       inkscape:vp_x="0 : 0.5 : 1"
       sodipodi:type="inkscape:persp3d" />
    <inkscape:perspective
       id="perspective6105"
       inkscape:persp3d-origin="0.5 : 0.33333333 : 1"
       inkscape:vp_z="1 : 0.5 : 1"
       inkscape:vp_y="0 : 1000 : 0"
       inkscape:vp_x="0 : 0.5 : 1"
       sodipodi:type="inkscape:persp3d" />
    <linearGradient
       inkscape:collect="always"
       xlink:href="#linearGradient6126"
       id="linearGradient6132"
       x1="213.33333"
       y1="446.52188"
       x2="286.77597"
       y2="446.52188"
       gradientUnits="userSpaceOnUse" />
    <inkscape:perspective
       id="perspective6261"
       inkscape:persp3d-origin="0.5 : 0.33333333 : 1"
       inkscape:vp_z="1 : 0.5 : 1"
       inkscape:vp_y="0 : 1000 : 0"
       inkscape:vp_x="0 : 0.5 : 1"
       sodipodi:type="inkscape:persp3d" />
    <inkscape:perspective
       id="perspective6291"
       inkscape:persp3d-origin="0.5 : 0.33333333 : 1"
       inkscape:vp_z="1 : 0.5 : 1"
       inkscape:vp_y="0 : 1000 : 0"
       inkscape:vp_x="0 : 0.5 : 1"
       sodipodi:type="inkscape:persp3d" />
    <inkscape:perspective
       id="perspective6291-9"
       inkscape:persp3d-origin="0.5 : 0.33333333 : 1"
       inkscape:vp_z="1 : 0.5 : 1"
       inkscape:vp_y="0 : 1000 : 0"
       inkscape:vp_x="0 : 0.5 : 1"
       sodipodi:type="inkscape:persp3d" />
    <inkscape:perspective
       id="perspective6334"
       inkscape:persp3d-origin="0.5 : 0.33333333 : 1"
       inkscape:vp_z="1 : 0.5 : 1"
       inkscape:vp_y="0 : 1000 : 0"
       inkscape:vp_x="0 : 0.5 : 1"
       sodipodi:type="inkscape:persp3d" />
    <inkscape:perspective
       id="perspective6381"
       inkscape:persp3d-origin="0.5 : 0.33333333 : 1"
       inkscape:vp_z="1 : 0.5 : 1"
       inkscape:vp_y="0 : 1000 : 0"
       inkscape:vp_x="0 : 0.5 : 1"
       sodipodi:type="inkscape:persp3d" />
  </defs>
  <sodipodi:namedview
     id="base"
     pagecolor="#ffffff"
     bordercolor="#666666"
     borderopacity="1.0"
     gridtolerance="10000"
     guidetolerance="10"
     objecttolerance="10"
     inkscape:pageopacity="0.0"
     inkscape:pageshadow="2"
     inkscape:zoom="1.4142136"
     inkscape:cx="217.30402"
     inkscape:cy="332.19901"
     inkscape:document-units="px"
     inkscape:current-layer="layer3"
     showgrid="false"
     width="128px"
     inkscape:window-width="1280"
     inkscape:window-height="967"
     inkscape:window-x="-4"
     inkscape:window-y="-4"
     inkscape:window-maximized="1"
     inkscape:snap-global="false"
     showguides="true"
     inkscape:guide-bbox="true">
    <inkscape:grid
       type="xygrid"
       id="grid3729"
       empspacing="5"
       visible="true"
       enabled="true"
       snapvisiblegridlinesonly="true" />
  </sodipodi:namedview>
  <metadata
     id="metadata7">
    <rdf:RDF>
      <cc:Work
         rdf:about="">
        <dc:format>image/svg+xml</dc:format>
        <dc:type
           rdf:resource="http://purl.org/dc/dcmitype/StillImage" />
        <dc:title></dc:title>
      </cc:Work>
    </rdf:RDF>
  </metadata>
  <g
     inkscape:label="action/foo"
     inkscape:groupmode="layer"
     id="layer1"
     style="display:inline">
    <g
       inkscape:groupmode="layer"
       id="layer3"
       inkscape:label="plate"
       style="display:none">
      <rect
         style="fill:#f2f2f2;fill-opacity:1;stroke:none;display:inline"
         id="rect2384"
         width="256"
         height="256"
         x="25"
         y="62" />
      <rect
         style="fill:#f2f2f2;fill-opacity:1;stroke:none;display:inline"
         id="rect2388"
         width="48"
         height="48"
         x="330"
         y="62" />
      <rect
         style="fill:#f2f2f2;fill-opacity:1;stroke:none"
         id="rect3275"
         width="32"
         height="32"
         x="330"
         y="155" />
      <rect
         style="fill:#f2f2f2;fill-opacity:1;stroke:none"
         id="rect3277"
         width="24"
         height="24"
         x="330"
         y="228" />
      <rect
         style="fill:#f2f2f2;fill-opacity:1;stroke:none;display:inline"
         id="rect3279"
         width="22"
         height="22"
         x="331"
         y="229" />
      <rect
         style="fill:#f2f2f2;fill-opacity:1;stroke:none"
         id="rect3281"
         width="16"
         height="16"
         x="330"
         y="286" />
      <text
         xml:space="preserve"
         style="font-size:20px;font-style:normal;font-weight:normal;fill:#000000;fill-opacity:1;stroke:none;font-family:Bitstream Vera Sans"
         x="23.798828"
         y="41.716797"
         id="text3283"
         inkscape:label="context"><tspan
           sodipodi:role="line"
           id="tspan3285"
           x="23.798828"
           y="41.716797">status</tspan></text>
      <text
         xml:space="preserve"
         style="font-size:20px;font-style:normal;font-weight:bold;fill:#000000;fill-opacity:1;stroke:none;font-family:Bitstream Vera Sans;-inkscape-font-specification:Bitstream Vera Sans Bold"
         x="229.61914"
         y="41.716797"
         id="text3287"
         inkscape:label="icon-name"><tspan
           sodipodi:role="line"
           id="tspan3289"
           x="229.61914"
           y="41.716797">unlocked</tspan></text>
      <path
         id="path2844"
         style="fill:none;stroke:#888a85;stroke-width:2;stroke-linecap:butt;stroke-linejoin:miter;stroke-miterlimit:4;stroke-opacity:1;stroke-dasharray:none"
         d="m 64.5,11.5 c -1.768091,10.095939 -4.722679,12.468395 -11,2.5 m -9,-29 c 10.577276,7.988177 14.006516,23.5390933 16,35.5" />
      <text
         xml:space="preserve"
         style="font-size:40px;font-style:normal;font-weight:normal;fill:#888a85;fill-opacity:1;stroke:none;font-family:Georgia;-inkscape-font-specification:Georgia"
         x="-92"
         y="-22.5"
         id="text3620"><tspan
           sodipodi:role="line"
           id="tspan3622"
           x="-92"
           y="-22.5"
           style="fill:#888a85;font-family:Gregs Other Hand;-inkscape-font-specification:Gregs Other Hand">icon Context</tspan></text>
      <path
         id="path2844-1"
         style="fill:none;stroke:#888a85;stroke-width:2;stroke-linecap:butt;stroke-linejoin:miter;stroke-miterlimit:4;stroke-opacity:1;stroke-dasharray:none;display:inline"
         d="m 241,9.25 c 1.76809,10.095939 4.72268,12.468395 11,2.5 m 9,-29 c -10.57728,7.9881767 -14.00652,23.5390927 -16,35.5" />
      <text
         xml:space="preserve"
         style="font-size:40px;font-style:normal;font-weight:normal;fill:#888a85;fill-opacity:1;stroke:none;display:inline;font-family:Georgia;-inkscape-font-specification:Georgia"
         x="202.20959"
         y="-25.699829"
         id="text3620-7"><tspan
           sodipodi:role="line"
           id="tspan3622-4"
           x="202.20959"
           y="-25.699829"
           style="fill:#888a85;font-family:Gregs Other Hand;-inkscape-font-specification:Gregs Other Hand">icon Name</tspan></text>
      <path
         id="path3697"
         style="fill:none;stroke:#888a85;stroke-width:5;stroke-linecap:butt;stroke-linejoin:miter;stroke-miterlimit:4;stroke-opacity:1;stroke-dasharray:none"
         d="M -9.948862,233.35309 C 22.626304,196.62705 8.6191198,203.06081 -29.529474,204.63816 m -131.970916,11.24681 c 46.04605,17.21328 115.440941,6.73954 160.0062476,-4.43366"
         sodipodi:nodetypes="cccc" />
      <text
         xml:space="preserve"
         style="font-size:40px;font-style:normal;font-weight:normal;fill:#888a85;fill-opacity:1;stroke:none;display:inline;font-family:Georgia;-inkscape-font-specification:Georgia"
         x="-297.78284"
         y="236.47217"
         id="text3620-9"><tspan
           sodipodi:role="line"
           id="tspan3622-48"
           x="-297.78284"
           y="236.47217"
           style="fill:#888a85;font-family:Gregs Other Hand;-inkscape-font-specification:Gregs Other Hand">Draw in</tspan><tspan
           sodipodi:role="line"
           x="-297.78284"
           y="286.47217"
           style="fill:#888a85;font-family:Gregs Other Hand;-inkscape-font-specification:Gregs Other Hand"
           id="tspan3725">The Gray Boxes</tspan></text>
      <rect
         style="fill:#2e3436;fill-opacity:0.50196078;stroke:none"
         id="rect3727"
         width="48"
         height="48"
         x="25"
         y="371" />
      <rect
         style="fill:#2e3436;fill-opacity:0.2745098;stroke:none;display:inline"
         id="rect3727-8"
         width="48"
         height="48"
         x="85"
         y="371" />
      <text
         xml:space="preserve"
         style="font-size:40px;font-style:normal;font-weight:normal;fill:url(#linearGradient6132);fill-opacity:1;stroke:none;display:inline;font-family:Georgia;-inkscape-font-specification:Georgia"
         x="13.986185"
         y="462.92203"
         id="text3620-9-5"><tspan
           sodipodi:role="line"
           x="13.986185"
           y="462.92203"
           style="fill:url(#linearGradient6132);fill-opacity:1;font-family:Gregs Other Hand;-inkscape-font-specification:Gregs Other Hand"
           id="tspan3725-1">Use these Colours</tspan></text>
      <text
         xml:space="preserve"
         style="font-size:18px;font-style:normal;font-weight:normal;fill:#d3d7cf;fill-opacity:1;stroke:none;display:inline;font-family:Georgia;-inkscape-font-specification:Georgia"
         x="24.136381"
         y="338.14877"
         id="text3620-9-5-7"><tspan
           sodipodi:role="line"
           x="24.136381"
           y="338.14877"
           style="font-size:18px;fill:#d3d7cf;font-family:Gregs Other Hand;-inkscape-font-specification:Gregs Other Hand"
           id="tspan3725-1-1">18 px outline</tspan></text>
      <text
         xml:space="preserve"
         style="font-size:18px;font-style:normal;font-weight:normal;fill:#d3d7cf;fill-opacity:1;stroke:none;display:inline;font-family:Georgia;-inkscape-font-specification:Georgia"
         x="386.30087"
         y="90.497757"
         id="text3620-9-5-7-1"><tspan
           sodipodi:role="line"
           x="386.30087"
           y="90.497757"
           style="font-size:18px;fill:#d3d7cf;font-family:Gregs Other Hand;-inkscape-font-specification:Gregs Other Hand"
           id="tspan3725-1-1-5">4 px outline</tspan></text>
      <text
         xml:space="preserve"
         style="font-size:18px;font-style:normal;font-weight:normal;fill:#d3d7cf;fill-opacity:1;stroke:none;display:inline;font-family:Georgia;-inkscape-font-specification:Georgia"
         x="386.15695"
         y="177.92946"
         id="text3620-9-5-7-7"><tspan
           sodipodi:role="line"
           x="386.15695"
           y="177.92946"
           style="font-size:18px;fill:#d3d7cf;font-family:Gregs Other Hand;-inkscape-font-specification:Gregs Other Hand"
           id="tspan3725-1-1-6">2 px outline</tspan></text>
      <text
         xml:space="preserve"
         style="font-size:18px;font-style:normal;font-weight:normal;fill:#d3d7cf;fill-opacity:1;stroke:none;display:inline;font-family:Georgia;-inkscape-font-specification:Georgia"
         x="386.85641"
         y="247.17537"
         id="text3620-9-5-7-4"><tspan
           sodipodi:role="line"
           x="386.85641"
           y="247.17537"
           style="font-size:18px;fill:#d3d7cf;font-family:Gregs Other Hand;-inkscape-font-specification:Gregs Other Hand"
           id="tspan3725-1-1-2">1 px outline</tspan></text>
      <text
         xml:space="preserve"
         style="font-size:18px;font-style:normal;font-weight:normal;fill:#d3d7cf;fill-opacity:1;stroke:none;display:inline;font-family:Georgia;-inkscape-font-specification:Georgia"
         x="386.85641"
         y="300.75974"
         id="text3620-9-5-7-4-3"><tspan
           sodipodi:role="line"
           x="386.85641"
           y="300.75974"
           style="font-size:18px;fill:#d3d7cf;font-family:Gregs Other Hand;-inkscape-font-specification:Gregs Other Hand"
           id="tspan3725-1-1-2-2">1 px outline</tspan></text>
      <text
         xml:space="preserve"
         style="font-size:40px;font-style:normal;font-weight:normal;fill:#888a85;fill-opacity:1;stroke:none;display:inline;font-family:Georgia;-inkscape-font-specification:Georgia"
         x="15.266703"
         y="560.57501"
         id="text3620-9-5-2"><tspan
           sodipodi:role="line"
           x="15.266703"
           y="560.57501"
           style="fill:#ce5c00;font-family:Gregs Other Hand;-inkscape-font-specification:Gregs Other Hand"
           id="tspan3725-1-16">Finished?</tspan><tspan
           sodipodi:role="line"
           x="15.266703"
           y="591.08264"
           style="font-size:22px;fill:#888a85;font-family:Gregs Other Hand;-inkscape-font-specification:Gregs Other Hand"
           id="tspan6122">Then <tspan
   style="fill:#f57900"
   id="tspan6152">hide</tspan> the <tspan
   style="fill:#f57900"
   id="tspan6140">plate</tspan> Layer</tspan><tspan
           sodipodi:role="line"
           x="15.266703"
           y="618.58264"
           style="font-size:22px;fill:#888a85;font-family:Gregs Other Hand;-inkscape-font-specification:Gregs Other Hand"
           id="tspan6124">and start the <tspan
   style="fill:#f57900"
   id="tspan6150">split-icons</tspan> Script</tspan></text>
    </g>
    <g
       style="display:inline"
       id="g6249"
       transform="translate(0,-2)">
      <path
         id="rect6202"
         d="m 340,172 c -0.554,0 -1,0.446 -1,1 l 0,8 c 0,0.554 0.446,1 1,1 l 12,0 c 0.554,0 1,-0.446 1,-1 l 0,-8 c 0,-0.554 -0.446,-1 -1,-1 l -12,0 z m 6,2 c 1.10457,0 2,0.89543 2,2 0,0.7396 -0.4031,1.37271 -1,1.71875 l 0,1.40625 c 0,0.48475 -0.39025,0.875 -0.875,0.875 l -0.25,0 C 345.39025,180 345,179.60975 345,179.125 l 0,-1.40625 c -0.5969,-0.34604 -1,-0.97915 -1,-1.71875 0,-1.10457 0.89543,-2 2,-2 z"
         style="fill:#bcbebf;fill-opacity:1;stroke:none" />
      <path
         sodipodi:nodetypes="ccccc"
         id="path6220"
         d="m 341,172 0,-4 c 0,-5 3,-6 5,-6 2,0 5,1 5,6 l 0,1"
         style="fill:none;stroke:#2e3436;stroke-width:2;stroke-linecap:butt;stroke-linejoin:round;stroke-miterlimit:4;stroke-opacity:0.50196078;stroke-dasharray:none" />
    </g>
    <g
       style="display:inline"
       id="g6369">
      <path
         sodipodi:nodetypes="ccccccccccsccccccsc"
         id="rect6202-5"
         d="M 342.14287,85 C 340.95571,85 340,85.936611 340,87.1 l 0,16.8 c 0,1.16339 0.95571,2.1 2.14287,2.1 l 25.71427,0 C 369.0443,106 370,105.06339 370,103.9 l 0,-16.8 c 0,-1.163389 -0.9557,-2.1 -2.14286,-2.1 l -25.71427,0 z M 355,89.2 c 2.36693,0 4.28571,1.880401 4.28571,4.200001 0,1.553157 -1.00664,2.882694 -2.28571,3.609368 l 0,2.953141 C 357,100.98049 356.30661,102 355.26786,102 l -0.53571,0 C 353.69339,102 353,100.98049 353,99.96251 l 0,-2.953141 c -1.27907,-0.726674 -2.2857,-2.056211 -2.2857,-3.609368 0,-2.3196 1.91878,-4.200001 4.2857,-4.200001 z"
         style="fill:#bcbebf;fill-opacity:1;stroke:none" />
      <path
         sodipodi:nodetypes="ccccc"
         id="path6220-7"
         d="m 344,85 0,-6.148026 c 0,-10.526316 6.28947,-12.789474 10.5,-12.789474 4.21052,0 10.5,2.263158 10.5,12.789474 L 365,81"
         style="fill:none;stroke:#2e3436;stroke-width:4;stroke-linecap:butt;stroke-linejoin:round;stroke-miterlimit:4;stroke-opacity:0.50196078;stroke-dasharray:none" />
    </g>
    <g
       id="g6435">
      <path
         id="rect6202-1"
         d="M 336.75675,239 C 336.27763,239 336,239.37558 336,239.8421 l 0,6.31579 c 0,0.46653 0.27763,0.84211 0.75675,0.84211 l 10.37839,0 C 347.61427,247 348,246.62442 348,246.15789 l 0,-6.31579 C 348,239.37558 347.61427,239 347.13514,239 l -10.37839,0 z M 342,240.35275 c 1.25711,0 1.99608,0.93077 1.99608,1.99357 0,0.62282 -0.47984,1.17807 -0.99608,1.46947 L 343,245 c 0,0.40821 -0.5267,0.73684 -0.94594,0.73684 l -0.21622,0 C 341.41858,245.73684 341,245.40821 341,245 l 0,-1.18421 c -0.51623,-0.2914 -1,-0.94589 -1,-1.46947 0,-1.05222 0.75394,-1.99357 2,-1.99357 z"
         style="display:inline;fill:#bcbebf;fill-opacity:1;stroke:none"
         sodipodi:nodetypes="ccccccccccsccccccsz" />
      <path
         sodipodi:nodetypes="ccccc"
         id="path6220-8"
         d="m 337.5,239 0,-3 c 0,-4.21053 2.81579,-5 4.5,-5 1.68421,0 4.5,0.78947 4.5,5 l 0,1"
         style="display:inline;fill:none;stroke:#2e3436;stroke-width:1;stroke-linecap:butt;stroke-linejoin:round;stroke-miterlimit:4;stroke-opacity:0.50196078000000000;stroke-dasharray:none" />
    </g>
    <g
       style="display:inline"
       id="g6351"
       transform="matrix(1.0185187,0,0,1.0025572,-4.9973734,-1.3899536)">
      <path
         id="rect6202-1-5"
         d="m 332.52257,294.16071 c -0.39201,0 -0.61916,0.34876 -0.61916,0.78195 l 0,5.86467 c 0,0.4332 0.22715,0.78196 0.61916,0.78196 l 8.49141,0 c 0.39201,0 0.70761,-0.34876 0.70761,-0.78196 l 0,-5.86467 c 0,-0.43319 -0.3156,-0.78195 -0.70761,-0.78195 l -8.49141,0 z m 4.28993,1.25613 c 1.02854,0 1.63316,0.86429 1.63316,1.85117 0,0.57833 -0.3926,1.09392 -0.81498,1.36451 l 0,1.09962 c 0,0.37905 -0.43093,0.68421 -0.77395,0.68421 l -0.17691,0 c -0.34303,0 -0.6855,-0.30516 -0.6855,-0.68421 l 0,-1.09962 c -0.42237,-0.27059 -0.81818,-0.87833 -0.81818,-1.36451 0,-0.97706 0.61686,-1.85117 1.63636,-1.85117 z"
         style="fill:#bcbebf;fill-opacity:1;stroke:none;display:inline"
         sodipodi:nodetypes="ccccccccccsccccccsz" />
      <path
         sodipodi:nodetypes="ccccc"
         id="path6220-8-4"
         d="m 333.13068,294.16072 0,-1.36079 c 0,-3.90978 2.30383,-4.67493 3.68182,-4.67493 1.37799,0 3.68182,0.76515 3.68182,4.67493 l 0,0.23671"
         style="fill:none;stroke:#2e3436;stroke-width:0.9896028;stroke-linecap:butt;stroke-linejoin:round;stroke-miterlimit:4;stroke-opacity:0.50196078;stroke-dasharray:none;display:inline" />
    </g>
    <g
       id="g6431">
      <path
         sodipodi:nodetypes="ccccccccccsccccccsc"
         id="rect6202-5-1"
         d="M 78.553644,187.875 C 71.875869,187.875 66.5,193.14344 66.5,199.6875 l 0,94.5 C 66.5,300.73157 71.875869,306 78.553644,306 l 144.642766,0 c 6.67778,0 12.05359,-5.26843 12.05359,-11.8125 l 0,-94.5 c 0,-6.54406 -5.37581,-11.8125 -12.05359,-11.8125 l -144.642766,0 z M 150.875,211.5 c 13.31398,0 24.10712,10.57726 24.10712,23.62501 0,8.7365 -5.66235,16.21515 -12.85712,20.30269 l 0,16.61142 c 0,5.72614 -3.90032,11.46088 -9.74329,11.46088 l -3.01337,0 c -5.84302,0 -9.74334,-5.73474 -9.74334,-11.46088 l 0,-16.61142 c -7.19477,-4.08754 -12.85706,-11.56619 -12.85706,-20.30269 0,-13.04775 10.79314,-23.62501 24.10706,-23.62501 z"
         style="fill:#bcbebf;fill-opacity:1;stroke:none" />
      <path
         sodipodi:nodetypes="cccccc"
         id="path6220-7-2"
         d="m 89,187.875 0,-21.625 0,-20.05921 C 89,86.980264 124.37827,74.25 148.0625,74.25 c 23.68417,0 59.0625,12.730264 59.0625,71.94079 l 0,7.68421"
         style="fill:none;stroke:#2e3436;stroke-width:18;stroke-linecap:butt;stroke-linejoin:round;stroke-miterlimit:4;stroke-opacity:0.50196078;stroke-dasharray:none" />
    </g>
  </g>
</svg>
